<?xml version="1.0" encoding="UTF-8" standalone="no"?>
<!-- Generator: Adobe Illustrator 16.0.0, SVG Export Plug-In . SVG Version: 6.00 Build 0)  -->

<svg
   version="1.1"
   id="Layer_1"
   x="0px"
   y="0px"
   width="123.68729"
   height="122.14166"
   viewBox="0 0 123.68729 122.14166"
   enable-background="new 0 0 97 97"
   xml:space="preserve"
   sodipodi:docname="git-dm-logo.svg"
   inkscape:version="1.2.1 (9c6d41e410, 2022-07-14)"
   inkscape:export-filename="git-dm-logo.png"
   inkscape:export-xdpi="96"
   inkscape:export-ydpi="96"
   xmlns:inkscape="http://www.inkscape.org/namespaces/inkscape"
   xmlns:sodipodi="http://sodipodi.sourceforge.net/DTD/sodipodi-0.dtd"
   xmlns="http://www.w3.org/2000/svg"
   xmlns:svg="http://www.w3.org/2000/svg"><defs
   id="defs105" /><sodipodi:namedview
   id="namedview103"
   pagecolor="#ffffff"
   bordercolor="#999999"
   borderopacity="1"
   inkscape:showpageshadow="0"
   inkscape:pageopacity="0"
   inkscape:pagecheckerboard="0"
   inkscape:deskcolor="#d1d1d1"
   showgrid="false"
   inkscape:zoom="5.8026495"
   inkscape:cx="34.122344"
   inkscape:cy="69.623368"
   inkscape:window-width="1906"
   inkscape:window-height="1141"
   inkscape:window-x="1925"
   inkscape:window-y="50"
   inkscape:window-maximized="1"
   inkscape:current-layer="Layer_1" />
<ellipse
   style="fill:#1e1e2e;fill-opacity:1;stroke:none;stroke-width:0.505342;stroke-linecap:round;paint-order:stroke fill markers"
   id="path263"
   cx="61.843647"
   cy="61.070831"
   rx="61.843647"
   ry="61.070831" /><ellipse
   style="fill:none;fill-opacity:1;stroke:#f5e0dc;stroke-width:0.98967;stroke-linecap:round;stroke-dasharray:none;stroke-opacity:1;paint-order:stroke fill markers"
   id="path263-3"
   cx="61.843647"
   cy="61.070831"
   rx="59.987572"
   ry="59.237949" /><g
   id="g100"
   transform="matrix(1.1247313,0,0,1.1247313,7.2953026,6.5202398)">
	<path
   fill="#F05133"
   d="M 92.71,44.408 52.591,4.291 c -2.31,-2.311 -6.057,-2.311 -8.369,0 l -8.33,8.332 10.567,10.567 c 2.456,-0.83 5.272,-0.273 7.229,1.685 1.969,1.97 2.521,4.81 1.67,7.275 l 10.186,10.185 c 2.465,-0.85 5.307,-0.3 7.275,1.671 2.75,2.75 2.75,7.206 0,9.958 -2.752,2.751 -7.208,2.751 -9.961,0 -2.068,-2.07 -2.58,-5.11 -1.531,-7.658 l -9.5,-9.499 v 24.997 c 0.67,0.332 1.303,0.774 1.861,1.332 2.75,2.75 2.75,7.206 0,9.959 -2.75,2.749 -7.209,2.749 -9.957,0 -2.75,-2.754 -2.75,-7.21 0,-9.959 0.68,-0.679 1.467,-1.193 2.307,-1.537 v -25.23 c -0.84,-0.344 -1.625,-0.853 -2.307,-1.537 -2.083,-2.082 -2.584,-5.14 -1.516,-7.698 L 31.798,16.715 4.288,44.222 c -2.311,2.313 -2.311,6.06 0,8.371 l 40.121,40.118 c 2.31,2.311 6.056,2.311 8.369,0 L 92.71,52.779 c 2.311,-2.311 2.311,-6.06 0,-8.371 z"
   id="path98"
   style="fill:#f5e0dc;fill-opacity:1" />
</g>
</svg>
